<svg id="Layer_1" data-name="Layer 1" xmlns="http://www.w3.org/2000/svg" viewBox="0 0 200 200"><defs><style>.cls-1{fill:#403d39;stroke:#74716f;stroke-width:3px;}.cls-1,.cls-2{stroke-miterlimit:10;}.cls-2{fill:#a5c2ac;stroke:#5e926a;stroke-width:2px;}</style></defs><title>fav</title><rect class="cls-1" x="2.75" y="2.75" width="194.5" height="194.5" rx="12" ry="12"/><path class="cls-2" d="M155.62,161.87a131.86,131.86,0,0,1-43.47,7.77c-21.42,0-39.06-5.46-52.92-18.69-12.18-11.76-19.74-30.66-19.74-52.71C39.7,56,68.68,25.15,116.14,25.15c16.38,0,29.19,3.57,35.28,6.51L147,46.57c-7.56-3.36-17-6.09-31.29-6.09-34.44,0-56.91,21.42-56.91,56.92,0,35.91,21.63,57.12,54.6,57.12,12,0,20.16-1.68,24.36-3.78V108.53H109V93.83h46.62Z"/></svg>