<svg xmlns="http://www.w3.org/2000/svg" viewBox="0 0 124.5 121.43"><defs><style>.cls-1{fill:#fff;}.cls-2,.cls-3{fill:#191717;}.cls-2{fill-rule:evenodd;}</style></defs><title>Artboard 4port</title><g id="Layer_2" data-name="Layer 2"><rect class="cls-1" width="124.5" height="121.43"/><path class="cls-2" d="M62.25,1.82A60.39,60.39,0,0,0,43.16,119.51c3,.55,4.13-1.31,4.13-2.91,0-1.44-.06-6.2-.09-11.24C30.4,109,26.86,98.23,26.86,98.23c-2.75-7-6.71-8.83-6.71-8.83-5.48-3.75.42-3.67.42-3.67,6.06.42,9.25,6.22,9.25,6.22,5.39,9.23,14.13,6.56,17.58,5,.54-3.9,2.1-6.57,3.83-8.08-13.41-1.52-27.51-6.7-27.51-29.84a23.39,23.39,0,0,1,6.22-16.21c-.63-1.52-2.69-7.66.58-16,0,0,5.08-1.62,16.61,6.19a57.36,57.36,0,0,1,30.25,0C88.9,25.24,94,26.86,94,26.86c3.28,8.32,1.22,14.46.59,16a23.35,23.35,0,0,1,6.22,16.21c0,23.19-14.13,28.3-27.58,29.8,2.17,1.87,4.1,5.54,4.1,11.18,0,8.08-.07,14.58-.07,16.57,0,1.61,1.08,3.49,4.14,2.9A60.39,60.39,0,0,0,62.25,1.82Z"/><path class="cls-3" d="M24.73,88.52c-.13.3-.6.39-1,.18s-.68-.6-.54-.9.6-.4,1-.19.69.61.53.91ZM24,88"/><path class="cls-3" d="M27.18,91.25a1.12,1.12,0,0,1-1.41-1.54c.3-.26.84-.14,1.24.28s.47,1,.17,1.26Zm-.58-.62"/><path class="cls-3" d="M29.56,94.73c-.37.25-1,0-1.35-.52s-.37-1.19,0-1.44,1,0,1.35.5.37,1.19,0,1.46Zm0,0"/><path class="cls-3" d="M32.82,98.09c-.33.36-1,.26-1.55-.24a1.15,1.15,0,0,1-.34-1.54c.33-.36,1-.26,1.56.23s.69,1.18.33,1.55Zm0,0"/><path class="cls-3" d="M37.32,100c-.14.47-.82.68-1.51.48s-1.13-.76-1-1.23.83-.71,1.52-.49,1.12.76,1,1.24Zm0,0"/><path class="cls-3" d="M42.27,100.4c0,.5-.57.91-1.29.92s-1.3-.39-1.31-.88.57-.91,1.29-.92,1.31.38,1.31.88Zm0,0"/><path class="cls-3" d="M46.86,99.62c.09.48-.41,1-1.12,1.11s-1.35-.17-1.44-.65.42-1,1.12-1.13,1.35.17,1.44.67Zm0,0"/></g></svg>