<svg xmlns="http://www.w3.org/2000/svg" viewBox="0 0 588.8 588.8"><defs><style>.cls-1{fill:#bf00bf;}.cls-2{fill:#fff;}</style></defs><title>insta</title><g id="Layer_2" data-name="Layer 2"><rect class="cls-1" width="588.8" height="588.8"/></g><g id="Logo"><path class="cls-2" d="M294.4,87.87c67.27,0,75.23.26,101.8,1.47C420.76,90.46,434.1,94.56,443,98a83.43,83.43,0,0,1,47.81,47.81c3.45,8.88,7.55,22.22,8.67,46.78,1.21,26.56,1.47,34.53,1.47,101.8s-.26,75.23-1.47,101.8c-1.12,24.56-5.22,37.9-8.67,46.78A83.43,83.43,0,0,1,443,490.79c-8.88,3.45-22.22,7.55-46.78,8.67-26.56,1.21-34.53,1.47-101.8,1.47s-75.24-.26-101.8-1.47c-24.56-1.12-37.9-5.22-46.78-8.67A83.43,83.43,0,0,1,98,443c-3.45-8.88-7.55-22.22-8.67-46.78-1.21-26.56-1.47-34.53-1.47-101.8s.26-75.23,1.47-101.8C90.46,168,94.56,154.7,98,145.82A83.43,83.43,0,0,1,145.82,98c8.88-3.45,22.22-7.55,46.78-8.67,26.56-1.21,34.53-1.47,101.8-1.47m0-45.39c-68.42,0-77,.29-103.87,1.52s-45.13,5.48-61.15,11.71A128.82,128.82,0,0,0,55.7,129.38c-6.23,16-10.49,34.34-11.71,61.15S42.48,226,42.48,294.4s.29,77,1.52,103.87,5.48,45.13,11.71,61.15a128.82,128.82,0,0,0,73.68,73.68c16,6.23,34.34,10.49,61.15,11.71s35.45,1.52,103.87,1.52,77-.29,103.87-1.52,45.13-5.48,61.15-11.71a128.82,128.82,0,0,0,73.68-73.68c6.23-16,10.49-34.34,11.71-61.15s1.52-35.45,1.52-103.87-.29-77-1.52-103.87-5.48-45.13-11.71-61.15A128.82,128.82,0,0,0,459.42,55.7c-16-6.23-34.34-10.49-61.15-11.71s-35.45-1.52-103.87-1.52Z"/><path class="cls-2" d="M294.4,165A129.36,129.36,0,1,0,423.76,294.4,129.36,129.36,0,0,0,294.4,165Zm0,213.34a84,84,0,1,1,84-84A84,84,0,0,1,294.4,378.37Z"/><circle class="cls-2" cx="428.88" cy="159.92" r="30.23"/></g></svg>