<?xml version="1.0" encoding="UTF-8" standalone="no"?>
<!-- Created with Inkscape (http://www.inkscape.org/) -->

<svg
   width="300"
   height="300"
   viewBox="0 0 79.374998 79.375"
   version="1.1"
   id="svg5"
   xml:space="preserve"
   sodipodi:docname="myrpglist_wip.svg"
   inkscape:version="1.3 (0e150ed, 2023-07-21)"
   inkscape:export-filename="ggroenendale.github.io/projs/myrpglist.svg"
   inkscape:export-xdpi="96"
   inkscape:export-ydpi="96"
   xmlns:inkscape="http://www.inkscape.org/namespaces/inkscape"
   xmlns:sodipodi="http://sodipodi.sourceforge.net/DTD/sodipodi-0.dtd"
   xmlns="http://www.w3.org/2000/svg"
   xmlns:svg="http://www.w3.org/2000/svg"><sodipodi:namedview
     id="namedview7"
     pagecolor="#505050"
     bordercolor="#ffffff"
     borderopacity="1"
     inkscape:showpageshadow="0"
     inkscape:pageopacity="0"
     inkscape:pagecheckerboard="1"
     inkscape:deskcolor="#505050"
     inkscape:document-units="mm"
     showgrid="false"
     inkscape:zoom="1.3895828"
     inkscape:cx="-99.670205"
     inkscape:cy="171.27443"
     inkscape:window-width="2510"
     inkscape:window-height="1376"
     inkscape:window-x="50"
     inkscape:window-y="27"
     inkscape:window-maximized="1"
     inkscape:current-layer="layer2" /><defs
     id="defs2"><filter
       style="color-interpolation-filters:sRGB"
       inkscape:label="Drop Shadow"
       id="filter7"
       x="-0.042272168"
       y="-0.022392502"
       width="1.1021577"
       height="1.0541152"><feFlood
         result="flood"
         in="SourceGraphic"
         flood-opacity="0.498039"
         flood-color="rgb(0,0,0)"
         id="feFlood6" /><feGaussianBlur
         result="blur"
         in="SourceGraphic"
         stdDeviation="0.600000"
         id="feGaussianBlur6" /><feOffset
         result="offset"
         in="blur"
         dx="0.600000"
         dy="0.600000"
         id="feOffset6" /><feComposite
         result="comp1"
         operator="in"
         in="flood"
         in2="offset"
         id="feComposite6" /><feComposite
         result="comp2"
         operator="over"
         in="SourceGraphic"
         in2="comp1"
         id="feComposite7" /></filter><filter
       y="0"
       height="1"
       x="0"
       width="1"
       inkscape:menu-tooltip="Aquarelle paper effect which can be used for pictures as for objects"
       inkscape:menu="Textures"
       inkscape:label="Rough Paper"
       style="color-interpolation-filters:sRGB"
       id="filter23"><feTurbulence
         type="fractalNoise"
         baseFrequency="0.04200000000000003"
         numOctaves="8"
         seed="0"
         result="result4"
         id="feTurbulence22" /><feDisplacementMap
         in="SourceGraphic"
         in2="result4"
         yChannelSelector="G"
         xChannelSelector="R"
         scale="7.425773"
         result="result3"
         id="feDisplacementMap22" /><feDiffuseLighting
         lighting-color="#e9e6d7"
         diffuseConstant="1.10774076"
         surfaceScale="1.37063324"
         result="result1"
         in="result4"
         id="feDiffuseLighting22"><feDistantLight
           azimuth="235"
           elevation="40"
           id="feDistantLight22" /></feDiffuseLighting><feComposite
         operator="in"
         in="result3"
         in2="result1"
         result="result2"
         id="feComposite22" /><feComposite
         in2="result1"
         result="result5"
         operator="arithmetic"
         k1="1.8399798"
         id="feComposite23"
         k2="0"
         k3="0"
         k4="0" /><feBlend
         in="result5"
         in2="result3"
         mode="luminosity"
         id="feBlend23" /></filter><filter
       style="color-interpolation-filters:sRGB"
       inkscape:label="Drop Shadow"
       id="filter8"
       x="0"
       y="0"
       width="1.1475818"
       height="1.12"
       inkscape:auto-region="false"><feFlood
         result="flood"
         in="SourceGraphic"
         flood-opacity="0.498039"
         flood-color="rgb(0,0,0)"
         id="feFlood5" /><feGaussianBlur
         result="blur"
         in="SourceGraphic"
         stdDeviation="0.600000"
         id="feGaussianBlur5" /><feOffset
         result="offset"
         in="blur"
         dx="0.600000"
         dy="0.600000"
         id="feOffset5" /><feComposite
         result="comp1"
         operator="in"
         in="flood"
         in2="offset"
         id="feComposite5" /><feComposite
         result="comp2"
         operator="over"
         in="SourceGraphic"
         in2="comp1"
         id="feComposite8" /></filter></defs><g
     inkscape:groupmode="layer"
     id="layer4"
     inkscape:label="Layer 4"
     style="display:inline"><rect
       style="fill:#28170b;stroke-width:0.308885;image-rendering:auto"
       id="rect318-0"
       width="79.375"
       height="79.375"
       x="0"
       y="0" /></g><g
     inkscape:groupmode="layer"
     id="layer3"
     inkscape:label="Layer 3"
     style="display:inline;filter:url(#filter23)"><rect
       style="display:inline;fill:#a05a2c;stroke-width:0.288293;image-rendering:auto"
       id="rect318"
       width="74.083336"
       height="74.083336"
       x="2.6458333"
       y="2.6458333"
       inkscape:label="rect318" /></g><g
     inkscape:label="Gold Under"
     inkscape:groupmode="layer"
     id="g3"
     style="display:inline;opacity:0.44;fill:#aa8800;filter:url(#filter7)"
     transform="matrix(1.0123175,0,0,1.0037159,-0.08485133,-0.02527925)"><text
       xml:space="preserve"
       style="font-size:4.96771px;fill:#aa8800;stroke-width:0.413976"
       x="6.3481612"
       y="20.004564"
       id="text3"
       transform="scale(0.98354508,1.0167302)"><tspan
         sodipodi:role="line"
         id="tspan1"
         style="font-style:normal;font-variant:normal;font-weight:normal;font-stretch:normal;font-size:19.8709px;font-family:Z003;-inkscape-font-specification:'Z003, Normal';font-variant-ligatures:normal;font-variant-caps:normal;font-variant-numeric:normal;font-variant-east-asian:normal;fill:#aa8800;stroke-width:0.413976"
         x="6.3481612"
         y="20.004564">MY</tspan><tspan
         sodipodi:role="line"
         style="font-style:normal;font-variant:normal;font-weight:normal;font-stretch:normal;font-size:19.8709px;font-family:Z003;-inkscape-font-specification:'Z003, Normal';font-variant-ligatures:normal;font-variant-caps:normal;font-variant-numeric:normal;font-variant-east-asian:normal;fill:#aa8800;stroke-width:0.413976"
         x="6.3481612"
         y="44.843189"
         id="tspan2">RPG</tspan><tspan
         sodipodi:role="line"
         style="font-style:normal;font-variant:normal;font-weight:normal;font-stretch:normal;font-size:19.8709px;font-family:Z003;-inkscape-font-specification:'Z003, Normal';font-variant-ligatures:normal;font-variant-caps:normal;font-variant-numeric:normal;font-variant-east-asian:normal;fill:#aa8800;stroke-width:0.413976"
         x="6.3481612"
         y="69.681808"
         id="tspan3">List</tspan></text></g><g
     inkscape:label="Text My Under"
     inkscape:groupmode="layer"
     id="g28"
     style="display:inline;fill:#554400"
     transform="matrix(1.0262324,0,0,0.99066345,-0.07703389,0.26049837)"><text
       xml:space="preserve"
       style="font-size:4.94889px;opacity:0.54;fill:#aa8800;stroke-width:0.412407"
       x="6.4096398"
       y="19.898239"
       id="text28"
       transform="scale(0.97532981,1.0252942)"
       inkscape:label="text28"><tspan
         sodipodi:role="line"
         style="font-style:normal;font-variant:normal;font-weight:normal;font-stretch:normal;font-size:19.7956px;font-family:Z003;-inkscape-font-specification:'Z003, Normal';font-variant-ligatures:normal;font-variant-caps:normal;font-variant-numeric:normal;font-variant-east-asian:normal;fill:#aa8800;stroke-width:0.412407"
         x="6.4096398"
         y="19.898239"
         id="tspan28">MY</tspan></text></g><g
     inkscape:label="My RPG List"
     inkscape:groupmode="layer"
     id="layer1"
     transform="matrix(1.0103284,0,0,0.99066346,0.04019976,0.26049837)"
     style="display:inline"><text
       xml:space="preserve"
       style="font-size:4.94889px;fill:#000000;stroke-width:0.412407"
       x="6.4096398"
       y="19.898239"
       id="text485"
       transform="scale(0.97532981,1.0252942)"><tspan
         sodipodi:role="line"
         id="tspan483"
         style="font-style:normal;font-variant:normal;font-weight:normal;font-stretch:normal;font-size:19.7956px;font-family:Z003;-inkscape-font-specification:'Z003, Normal';font-variant-ligatures:normal;font-variant-caps:normal;font-variant-numeric:normal;font-variant-east-asian:normal;fill:#000000;stroke-width:0.412407"
         x="6.4096398"
         y="19.898239">MY</tspan><tspan
         sodipodi:role="line"
         style="font-style:normal;font-variant:normal;font-weight:normal;font-stretch:normal;font-size:19.7956px;font-family:Z003;-inkscape-font-specification:'Z003, Normal';font-variant-ligatures:normal;font-variant-caps:normal;font-variant-numeric:normal;font-variant-east-asian:normal;fill:#000000;stroke-width:0.412407"
         x="6.4096398"
         y="44.642738"
         id="tspan487">RPG</tspan><tspan
         sodipodi:role="line"
         style="font-style:normal;font-variant:normal;font-weight:normal;font-stretch:normal;font-size:19.7956px;font-family:Z003;-inkscape-font-specification:'Z003, Normal';font-variant-ligatures:normal;font-variant-caps:normal;font-variant-numeric:normal;font-variant-east-asian:normal;fill:#000000;stroke-width:0.412407"
         x="6.4096398"
         y="69.387238"
         id="tspan489">List</tspan></text></g><g
     inkscape:groupmode="layer"
     id="layer2"
     inkscape:label="Layer 2"
     transform="matrix(1.2153174,0,0,1.2939167,-12.510701,-7.1086467)"
     style="filter:url(#filter4)"><path
       d="m 53.568165,22.595346 c -0.275452,-0.0024 -0.550708,0.0054 -0.825331,0.02915 -0.488188,0.0422 -0.997438,0.09299 -1.435507,0.299535 -0.539743,0.254486 -1.154127,0.546261 -1.371726,1.111475 -0.160785,0.417714 -0.179349,0.917199 -0.0055,1.335526 0.241077,0.580191 0.885204,0.889051 1.483555,1.071936 0.432006,0.157745 0.899695,0.119476 1.351741,0.163346 1.782199,0.143729 3.578627,0.279552 5.355086,0.388597 1.922327,0.133335 3.799054,0.314379 5.719491,0.468472 1.883545,0.173129 1.497703,0.268977 0.95332,-1.035991 -0.152455,-0.608971 -0.175065,-0.443203 -0.161155,-1.227295 0.0099,-0.560939 0.158844,-0.708482 0.522583,-1.424188 0.15683,-0.308598 0.07999,-0.429559 -0.05018,-0.549148 -0.295529,-0.09209 -0.503148,-0.07736 -0.800669,-0.113024 -2.749325,-0.158505 -5.553573,-0.308959 -8.305615,-0.417752 -0.82662,-0.03267 -1.603716,-0.09354 -2.430071,-0.100643 z m 14.15692,0.644998 c -0.166422,-0.0031 -0.334025,0.0038 -0.498345,0.02876 -0.312582,0.04745 -0.632475,0.09994 -0.918027,0.228446 -0.343046,0.154379 -0.685272,0.353445 -0.918878,0.635413 -0.20136,0.243049 -0.497274,0.571747 -0.370782,0.855871 0.107682,0.241874 0.198216,0.239134 0.773456,0.300334 0.575238,0.0612 0.565125,0.0636 1.270525,0.136189 0.7054,0.07259 0.21116,0.02396 1.052393,0.111027 0.524159,0.02898 0.45887,0.404356 0.4065,0.548349 -0.0284,0.134954 -0.07183,0.242936 -0.119483,0.36064 -0.04407,0.108864 -0.09466,0.215574 -0.153076,0.318306 -0.06663,0.117165 -0.132755,0.237253 -0.224085,0.338674 -0.161872,0.179765 -0.339955,0.361363 -0.563828,0.467274 -0.449753,0.212771 -0.976185,0.252121 -1.477602,0.295941 -0.310117,0.0271 -0.499782,0.002 -0.934185,-0.02157 -2.251903,-0.140159 -4.501012,-0.336854 -6.751474,-0.474064 -1.359459,-0.08633 -2.716382,-0.207527 -4.074781,-0.304727 -0.301457,-0.02214 -0.68536,-0.02229 -0.855522,0.258799 -0.397027,0.924986 -0.842419,1.833009 -1.250966,2.754523 -0.196841,0.443995 -0.385765,0.891058 -0.578284,1.336724 -0.353084,0.81736 -0.71713,1.630643 -1.057921,2.452592 -0.440166,1.061625 -0.865556,2.128795 -1.274353,3.20143 -0.282528,0.741322 -0.559347,1.484831 -0.814276,2.234929 -0.226355,0.666027 -0.452074,1.333142 -0.634837,2.010878 -0.270982,1.004873 -0.549213,2.013951 -0.683312,3.042876 -0.149899,1.150085 -0.269566,2.322336 -0.13224,3.473806 0.07866,0.65952 0.160834,1.366159 0.542568,1.924612 0.201839,0.295277 0.526408,0.521741 0.865726,0.668562 0.610123,0.263997 1.317523,0.254398 1.984452,0.329888 2.382136,0.269621 4.788311,0.29673 7.183061,0.436522 1.846958,0.107815 3.806014,0.268568 5.541754,0.310318 -0.215369,-0.269462 -0.769855,-0.614755 -0.98521,-0.884227 -0.246804,-0.327799 -0.457805,-0.706501 -0.486865,-1.113471 -0.0309,-0.842168 -0.04248,-1.69158 0.09014,-2.527276 0.161117,-0.795153 0.31398,-1.592637 0.514079,-2.380304 0.03509,-0.1339 0.08924,-0.314965 0.138193,-0.486445 0.27692,-1.087809 0.628674,-2.156547 0.959272,-3.230584 0.254888,-0.707275 0.497721,-1.418812 0.757298,-2.124302 0.212409,-0.599803 0.45153,-1.197815 0.678209,-1.788024 0.128903,-0.369901 0.299731,-0.724051 0.453273,-1.084715 0.178081,-0.506116 0.476683,-0.968694 0.638239,-1.479304 0.408459,-0.818641 0.804683,-1.625795 1.226729,-2.435418 0.216144,-0.394092 0.401437,-0.807436 0.659925,-1.17857 0.07266,-0.147682 0.149613,-0.289611 0.240243,-0.429334 0.117055,-0.257319 0.316292,-0.471078 0.444769,-0.72088 0.316402,-0.479967 0.773436,-0.870685 1.088111,-1.352301 0.316105,-0.483806 0.636433,-0.982991 0.794716,-1.530823 0.143547,-0.496846 0.273983,-1.044459 0.125437,-1.540009 -0.205208,-0.684573 -0.496812,-1.123358 -0.960973,-1.51964 -0.230038,-0.196398 -0.543635,-0.29576 -0.84319,-0.37382 -0.279654,-0.07287 -0.576416,-0.07657 -0.866577,-0.08187 z m -2.384574,2.244515 c -0.124295,-0.009 -0.23893,0.0034 -0.31508,0.08427 -0.196525,0.208652 -0.02444,0.56521 0.0523,0.834305 0.08841,0.310023 0.403621,0.724135 0.459651,0.860664 0.243134,0.419343 0.580481,0.39774 1.073654,0.293544 0.340521,-0.06026 0.95455,-0.428161 1.273076,-0.94014 0.509876,-0.83168 0.403202,-0.772051 -0.195171,-0.849881 -0.42092,-0.04836 -0.474606,-0.0613 -0.712225,-0.08946 -0.217154,-0.02574 -0.434711,-0.04683 -0.651846,-0.07269 -0.203887,-0.02428 -0.405634,-0.07068 -0.611026,-0.07748 -0.114857,-0.0038 -0.249039,-0.03413 -0.373334,-0.04313 z m -3.010907,19.895909 c -0.177967,0.742007 -0.334423,1.489632 -0.420532,2.246512 -0.07966,0.726186 -0.158156,1.482986 0.07611,2.191797 0.235134,0.653417 0.868661,1.077377 1.487382,1.393037 0.606703,0.308039 1.295002,0.410657 1.97042,0.491237 0.681074,-0.02114 1.377608,-0.126461 1.984453,-0.433727 0.717044,-0.346384 1.284501,-0.949598 1.55414,-1.664216 0.297465,-0.653431 0.311896,-1.375615 0.287866,-2.074379 0.0014,-0.450426 -0.210526,-0.880721 -0.503447,-1.228493 -0.331046,-0.316807 -0.773759,-0.518969 -1.224178,-0.639806 -0.77346,-0.162564 -1.607663,-0.103165 -2.339077,0.187708 -0.577046,0.23394 -1.131766,0.68271 -1.231406,1.293991 -0.03357,0.281818 -0.115746,0.600025 0.04507,0.859066 0.04165,0.143388 0.213634,0.157258 0.34527,0.188108 0.867621,0.08312 1.741534,0.09762 2.609935,0.176127 0.119915,0.0051 0.229064,0.142671 0.271284,0.256402 0.07012,0.188867 0.06841,0.374002 -0.07101,0.596274 -0.261915,0.417548 -0.630605,0.835812 -1.153168,0.948527 -0.417672,0.08802 -0.893069,0.128131 -1.281581,-0.07229 -0.559735,-0.318289 -0.628482,-0.518989 -1.033259,-1.491684 -0.142699,-0.410789 -0.117801,-0.864216 -0.07441,-1.294391 0.02223,-0.220371 0.07741,-0.441071 0.170083,-0.644599 0.104027,-0.228469 0.378373,-0.521969 0.462203,-0.631819 0.812879,-0.526428 1.020153,-0.56578 -0.257252,-0.63102 -0.848979,-6e-4 -0.687779,-0.0046 -1.031558,-0.0096 -0.214534,-0.0031 -0.51734,-0.004 -0.643341,-0.01278 z m 2.143905,2.997346 c -0.154114,-0.0078 -0.296871,0.01507 -0.378011,0.119414 -0.167107,0.214883 0.02757,0.494248 0.199423,0.775996 0.171856,0.281747 0.331519,0.474651 0.770905,0.598271 0.515675,0.111795 1.046878,0.0067 1.467397,-0.313514 0.223838,-0.144494 0.533434,-0.510843 0.381838,-0.749636 -0.07028,-0.1107 -0.363295,-0.172561 -0.496644,-0.185711 -0.580051,-0.07317 -0.870319,-0.0953 -1.499714,-0.181319 -0.125685,-0.01718 -0.29108,-0.0557 -0.445194,-0.0635 z"
       style="display:inline;fill:#ffd42a;stroke-width:0.0715201;filter:url(#filter8)"
       id="path3" /><path
       d="m 53.276471,22.254675 c -0.242529,0.01073 -0.832541,0.06854 -1.001793,0.08627 -0.519554,0.0544 -1.012554,0.209789 -1.435507,0.472466 -0.498683,0.309709 -0.994855,0.720404 -1.208445,1.244867 -0.174505,0.428489 -0.144233,0.941841 0.01276,1.376263 0.121139,0.335216 0.389054,0.623637 0.680335,0.848283 0.361605,0.278887 0.678259,0.436912 1.264147,0.57311 0.379772,0.09824 0.817876,-0.01466 1.162097,0.194498 0.212523,0.124324 0.250371,0.403367 0.138193,0.603064 -0.189714,0.419226 -0.389694,0.834882 -0.581261,1.253654 -0.119719,0.261709 -0.237897,0.524045 -0.35505,0.786778 -0.297287,0.666705 -0.595565,1.333084 -0.882734,2.003689 -0.190966,0.445944 -0.371572,0.895746 -0.558726,1.343115 -0.312001,0.745803 -0.635557,1.487377 -0.940563,2.235728 -0.140718,0.345267 -0.275283,0.692726 -0.410327,1.039985 -0.202018,0.519486 -0.409981,1.037161 -0.598269,1.561176 -0.232394,0.64677 -0.449746,1.298335 -0.655673,1.952968 -0.281708,0.895542 -0.578595,1.788772 -0.793015,2.700607 -0.17193,0.731134 -0.31475,1.47033 -0.39417,2.21536 -0.102201,0.958743 -0.16518,1.927259 -0.104601,2.889115 0.02862,0.454428 0.08182,0.913645 0.220258,1.349904 0.130426,0.411006 0.255354,0.858107 0.567655,1.170982 0.328465,0.329068 0.813648,0.498787 1.2701,0.639007 0.779469,0.239451 0.74434,0.15617 2.436025,0.323498 1.691683,0.167328 5.015852,0.269513 7.523229,0.413358 1.737088,0.09966 3.543252,0.211425 5.210515,0.311517 0.557882,0.01501 1.093487,0.204811 1.65449,0.187708 0.699637,-0.005 1.42564,-0.09644 2.038878,-0.432928 0.351623,-0.157454 0.662235,-0.39552 0.930359,-0.658976 0.191755,-0.215549 0.338951,-0.457686 0.506849,-0.692925 0.154287,-0.216167 0.25284,-0.448494 0.353349,-0.680543 0.234118,-0.734882 0.391859,-1.522671 0.23259,-2.286051 -0.134387,-0.594923 -0.420679,-1.210557 -0.992864,-1.541606 -0.287117,-0.19925 -0.610097,-0.350232 -0.962249,-0.414157 -1.181843,-0.260919 -2.103492,-0.160297 -3.157605,-0.194897 -0.472168,-0.0155 -0.563888,0.0081 -1.417222,-0.0056 -0.544148,0.02728 -0.697978,0.0725 -0.470707,-0.702908 0.278996,-1.089984 0.604833,-2.169483 0.962674,-3.238971 0.239018,-0.660398 0.442738,-1.332408 0.690115,-1.99051 0.17288,-0.481258 0.327607,-0.96872 0.533212,-1.438566 0.206928,-0.573157 0.456585,-1.159262 0.698194,-1.731711 0.234771,-0.560366 0.513335,-1.103847 0.744967,-1.665015 0.565856,-1.193207 1.20224,-2.355502 1.82925,-3.520933 0.107066,-0.167893 0.221364,-0.328243 0.312104,-0.504816 0.320597,-0.511079 0.619022,-1.045643 1.068126,-1.470517 0.330924,-0.358143 0.61596,-0.748518 0.856797,-1.167388 0.28799,-0.620341 0.473491,-1.296649 0.486864,-1.97094 0.0096,-0.483885 -0.03525,-1.006699 -0.292969,-1.425786 -0.32734,-0.532308 -0.890683,-0.947814 -1.483981,-1.207325 -0.450395,-0.197007 -0.977528,-0.175271 -1.472074,-0.220059 -0.561009,-0.05081 -1.126649,-0.03295 -1.689782,-0.05472 -2.555541,-0.09876 -5.109862,-0.224779 -7.664399,-0.344265 -1.149446,-0.05376 -2.176218,-0.132177 -3.265608,-0.174928 -0.531228,-0.02085 -1.084602,-0.06249 -1.594535,-0.03994 z m 0.291694,0.340671 c 0.826356,0.0071 1.60345,0.06797 2.430071,0.100643 2.752045,0.108793 5.556287,0.259247 8.305615,0.417752 0.297521,0.03566 0.50514,0.02093 0.800669,0.113024 0.130165,0.119589 0.207005,0.24055 0.05018,0.549148 -0.363739,0.715707 -0.512638,0.863249 -0.522583,1.424188 -0.01391,0.784093 0.0087,0.618323 0.161155,1.227295 0.544384,1.304969 0.930227,1.20912 -0.95332,1.035991 C 61.919513,27.309293 60.04279,27.12825 58.120461,26.994915 56.344,26.88587 54.547576,26.750047 52.765375,26.606318 c -0.452047,-0.04387 -0.919734,-0.0056 -1.351741,-0.163346 -0.598351,-0.182885 -1.242478,-0.491745 -1.483555,-1.071936 -0.173822,-0.418328 -0.155258,-0.917812 0.0055,-1.335526 0.217599,-0.565215 0.831982,-0.856989 1.371726,-1.111475 0.438069,-0.206547 0.947318,-0.257335 1.435507,-0.299535 0.274623,-0.02374 0.549879,-0.03153 0.825331,-0.02915 z m 14.15692,0.644998 c 0.290162,0.0053 0.586923,0.009 0.866577,0.08187 0.299555,0.07806 0.613152,0.177422 0.84319,0.37382 0.464161,0.396282 0.755765,0.835067 0.960973,1.51964 0.148546,0.495551 0.01811,1.043163 -0.125437,1.540009 -0.158284,0.547832 -0.47861,1.047017 -0.794716,1.530823 -0.314676,0.481617 -0.771709,0.872334 -1.088111,1.352301 -0.128477,0.249802 -0.327714,0.46356 -0.444769,0.72088 -0.09063,0.139723 -0.167581,0.281652 -0.240243,0.429334 -0.258488,0.371134 -0.443781,0.784477 -0.659925,1.17857 -0.422047,0.809624 -0.818269,1.616776 -1.226729,2.435418 -0.161556,0.510611 -0.460157,0.973187 -0.638239,1.479304 -0.153542,0.360664 -0.324369,0.714814 -0.453273,1.084715 -0.226679,0.59021 -0.465799,1.188221 -0.678209,1.788024 -0.259577,0.70549 -0.502409,1.417027 -0.757298,2.124302 -0.330599,1.074038 -0.682352,2.142774 -0.959272,3.230584 -0.04895,0.171481 -0.103101,0.352545 -0.138193,0.486445 -0.200099,0.787668 -0.352962,1.585151 -0.514079,2.380304 -0.132623,0.835697 -0.121049,1.685108 -0.09014,2.527276 0.02906,0.40697 0.240061,0.785671 0.486865,1.113471 0.215356,0.269473 0.769841,0.614764 0.98521,0.884227 -1.735741,-0.04175 -3.694794,-0.202503 -5.541754,-0.310318 -2.394752,-0.139792 -4.800923,-0.166901 -7.183061,-0.436522 -0.66693,-0.07549 -1.374329,-0.06589 -1.984452,-0.329888 -0.339318,-0.146821 -0.663887,-0.373284 -0.865726,-0.668562 -0.381734,-0.558454 -0.463912,-1.265092 -0.542568,-1.924612 -0.137326,-1.151471 -0.01766,-2.323719 0.13224,-3.473806 0.134099,-1.028926 0.41233,-2.038002 0.683312,-3.042876 0.182763,-0.677737 0.408482,-1.34485 0.634837,-2.010878 0.254929,-0.750099 0.531748,-1.493606 0.814276,-2.234929 0.408797,-1.072636 0.834186,-2.139804 1.274353,-3.20143 0.340791,-0.82195 0.704837,-1.635231 1.057921,-2.452592 0.192519,-0.445666 0.381443,-0.892729 0.578284,-1.336724 0.408547,-0.921515 0.853939,-1.829536 1.250966,-2.754523 0.170162,-0.281086 0.554065,-0.280944 0.855522,-0.258799 1.3584,0.0972 2.715321,0.218397 4.074781,0.304727 2.250464,0.13721 4.499569,0.333904 6.751474,0.474064 0.434403,0.02354 0.624068,0.04867 0.934185,0.02157 0.501417,-0.04382 1.027849,-0.08317 1.477602,-0.295941 0.223873,-0.105911 0.401956,-0.287508 0.563828,-0.467274 0.09133,-0.101421 0.157458,-0.221509 0.224085,-0.338674 0.05842,-0.102732 0.109007,-0.209442 0.153076,-0.318306 0.04765,-0.117704 0.09108,-0.225686 0.119483,-0.36064 0.05237,-0.143993 0.11766,-0.519368 -0.4065,-0.548349 -0.841234,-0.08707 -0.346993,-0.03844 -1.052393,-0.111027 -0.7054,-0.07259 -0.695286,-0.07499 -1.270525,-0.136189 -0.575241,-0.0612 -0.665774,-0.05846 -0.773456,-0.300334 -0.126492,-0.284124 0.169421,-0.612822 0.370782,-0.855871 0.233606,-0.281969 0.575832,-0.481033 0.918878,-0.635413 0.285552,-0.128507 0.605445,-0.180997 0.918027,-0.228446 0.164321,-0.02494 0.331923,-0.03181 0.498345,-0.02876 z m -2.384574,2.244515 c 0.124295,0.009 0.258477,0.03933 0.373334,0.04313 0.205393,0.0068 0.407139,0.0532 0.611026,0.07748 0.217135,0.02586 0.434692,0.04695 0.651846,0.07269 0.237619,0.02816 0.291305,0.0411 0.712225,0.08946 0.598374,0.07783 0.705048,0.0182 0.195171,0.849881 -0.318526,0.511979 -0.932555,0.879883 -1.273076,0.94014 -0.493174,0.104196 -0.830519,0.125799 -1.073654,-0.293544 -0.05603,-0.136529 -0.371236,-0.55064 -0.459651,-0.860664 -0.07674,-0.269095 -0.248826,-0.625653 -0.0523,-0.834305 0.07615,-0.08085 0.190785,-0.09327 0.31508,-0.08427 z m -3.010907,19.895909 c 0.126001,0.0088 0.428807,0.0097 0.643341,0.01278 0.343779,0.005 0.182578,0.009 1.031558,0.0096 1.277406,0.06524 1.070132,0.104592 0.257252,0.63102 -0.08383,0.10985 -0.358176,0.403349 -0.462203,0.631819 -0.09267,0.203528 -0.147856,0.424228 -0.170083,0.644599 -0.04339,0.430176 -0.06829,0.883602 0.07441,1.294391 0.404778,0.972696 0.473523,1.173395 1.033259,1.491684 0.388513,0.200418 0.863908,0.160304 1.281581,0.07229 0.522563,-0.112716 0.891253,-0.530978 1.153168,-0.948527 0.139424,-0.222272 0.141129,-0.407406 0.07101,-0.596274 -0.04222,-0.113731 -0.151369,-0.251341 -0.271284,-0.256402 -0.868402,-0.07851 -1.742313,-0.09301 -2.609935,-0.176127 -0.131636,-0.03085 -0.303625,-0.04472 -0.34527,-0.188108 -0.160818,-0.259041 -0.07864,-0.577248 -0.04507,-0.859066 0.09964,-0.611282 0.65436,-1.060051 1.231406,-1.293991 0.731414,-0.290873 1.565617,-0.350272 2.339077,-0.187708 0.450419,0.120837 0.893132,0.322999 1.224178,0.639806 0.292921,0.347772 0.504843,0.778067 0.503447,1.228493 0.02403,0.698764 0.0096,1.420947 -0.287866,2.074379 -0.269639,0.714619 -0.837095,1.317832 -1.55414,1.664216 -0.606846,0.307266 -1.303378,0.412592 -1.984453,0.433727 -0.675419,-0.08058 -1.363716,-0.183198 -1.97042,-0.491237 -0.618722,-0.31566 -1.252248,-0.739619 -1.487382,-1.393037 -0.234268,-0.708812 -0.155767,-1.46561 -0.07611,-2.191797 0.08611,-0.756881 0.242565,-1.504504 0.420532,-2.246512 z m 2.143905,2.997346 c 0.154114,0.0078 0.319508,0.04632 0.445194,0.0635 0.629396,0.08602 0.919662,0.108153 1.499714,0.181319 0.13335,0.01315 0.426366,0.07501 0.496644,0.185711 0.151596,0.238793 -0.158,0.605142 -0.381838,0.749636 -0.420519,0.320179 -0.951722,0.42531 -1.467397,0.313514 -0.439387,-0.12362 -0.599049,-0.316524 -0.770905,-0.598271 -0.171855,-0.281748 -0.36653,-0.561113 -0.199423,-0.775996 0.08114,-0.104344 0.223897,-0.127225 0.378011,-0.119413 z"
       style="display:inline;stroke-width:0.255102"
       id="path2" /></g></svg>
